PathFileType	4	(X/Y/Z)	OpenSim_Sub06_CSBaseline_Gyro.trc
DataRate	CameraRate	NumFrames	NumMarkers	Units	OrigDataRate	OrigDataStartFrame	OrigNumFrames
100	100	20	8	m	100	4247	8492
Frame#	Time	torso_imu_offset_imu	pelvis_imu_offset_imu	tibia_r_imu_offset_imu	femur_r_imu_offset_imu	tibia_l_imu_offset_imu	femur_l_imu_offset_imu	toes_r_imu_offset_imu	toes_l_imu_offset_imu
				X1	Y1	Z1	X2	Y2	Z2	X3	Y3	Z3	X4	Y4	Z4	X5	Y5	Z5	X6	Y6	Z6	X7	Y7	Z7	X8		Y8	Z8	

4247	42.46000000	-0.74972557	-0.30535609	-0.27141188	-0.59779290	0.39449822	-0.08489503	1.01356148	0.46740813	4.25252243	0.15733385	-0.08230481	0.30052108	0.16696155	-0.05974699	0.45775383	0.61047637	-0.06115129	1.12903287	-1.10067670	4.54050609	2.48127674	0.00048907	-0.26589419	0.21462708
4248	42.47000000	-0.72785953	-0.30399627	-0.26743015	-0.58031151	0.40521044	-0.08718406	0.63922125	0.66698246	4.37781293	0.33955052	-0.13128849	0.14736805	0.22525267	-0.04191587	0.47197734	0.49777054	-0.08622180	1.14182071	-1.07294781	4.47912983	2.33903882	-0.03260499	-0.28796226	0.23615661
4249	42.48000000	-0.68947966	-0.29401893	-0.25483674	-0.52766084	0.39606746	-0.07981440	0.13867400	0.84256575	4.55579025	0.51635195	-0.21392476	0.02046040	0.24378179	-0.01400483	0.48414331	0.33998978	-0.14433305	1.15050025	-1.11030080	4.32193398	2.13780050	-0.02504205	-0.27085385	0.24283605
4250	42.49000000	-0.63133970	-0.28167202	-0.25940414	-0.47005795	0.36186151	-0.07037604	-0.45315673	0.90122429	4.80283798	0.62671938	-0.32896050	-0.16996343	0.21361253	-0.01061154	0.51950932	0.18146398	-0.19792729	1.15893767	-1.14455365	4.17765835	1.93613269	-0.04571956	-0.28199080	0.24307388
4251	42.50000000	-0.58260951	-0.25025056	-0.26349752	-0.37961077	0.30287674	-0.05344477	-0.82299929	0.83713816	5.00891109	0.68160711	-0.42384330	-0.34321230	0.17965644	-0.00544322	0.57228882	0.08878104	-0.22317030	1.16923351	-1.19555770	3.87515390	1.75716038	0.00772870	-0.25871117	0.22838719
4252	42.51000000	-0.55048757	-0.22752227	-0.25857657	-0.25887633	0.22023941	-0.03411365	-0.76995738	0.69618705	5.10454586	0.67236190	-0.45997181	-0.46226830	0.15784211	-0.01131106	0.61282318	-0.01966413	-0.22946491	1.16414031	-1.33938593	3.51171770	1.73906149	-0.02629653	-0.28685118	0.24180988
4253	42.52000000	-0.50835459	-0.19213816	-0.24545405	-0.14981391	0.12005153	-0.01589143	-0.72653409	0.51765697	5.10729293	0.56435225	-0.39918300	-0.58514397	0.19919740	-0.00480120	0.62723689	-0.13457890	-0.20114194	1.15194040	-1.49695466	3.28705058	1.98056635	-0.05388381	-0.28287505	0.25119822
4254	42.53000000	-0.47163455	-0.14891443	-0.23568808	-0.03654424	0.02640327	0.01149383	-0.68848479	0.37395828	5.03382732	0.39279440	-0.25126306	-0.77874709	0.24395902	0.02051007	0.65460610	-0.18877471	-0.10689926	1.13255446	-1.48069437	3.04868920	2.31367450	-0.02804355	-0.29214757	0.26242378
4255	42.54000000	-0.40230917	-0.09768479	-0.21577983	0.05471332	-0.07117805	0.03622091	-0.24276646	0.18134684	4.91947281	0.26551553	-0.07551626	-0.97915905	0.30676119	0.04852736	0.70086644	-0.22998457	-0.09406173	1.09266242	-1.27982734	2.64139858	2.60510535	-0.02747761	-0.29528087	0.26433338
4256	42.55000000	-0.33917866	-0.05174854	-0.20112278	0.12405594	-0.15734727	0.04680487	0.52868872	-0.09842880	4.72087258	0.22018944	0.07511460	-1.17316294	0.38001638	0.07859335	0.76988951	-0.09806856	-0.10654570	1.06220771	-1.07889987	2.16621556	2.87186614	-0.02515052	-0.31144766	0.26537653
4257	42.56000000	-0.26968999	0.00421095	-0.18751847	0.18220027	-0.23441566	0.07845422	1.24907391	-0.34128152	4.30227205	0.24446408	0.14359641	-1.31617878	0.42758687	0.10385131	0.82743608	-0.01153844	-0.09979429	1.02717509	-0.84535597	1.65416351	3.23886790	-0.07534667	-0.36077418	0.27619067
4258	42.57000000	-0.20282586	0.06999200	-0.16757694	0.18543050	-0.30151722	0.09039117	1.89003107	-0.26827637	3.74091430	0.28938232	0.07095765	-1.35927479	0.42621798	0.16824909	0.87479201	0.12291347	-0.07103776	0.99243969	-1.46243760	1.23465892	3.53866019	-0.05304257	-0.38953506	0.25535460
4259	42.58000000	-0.15211973	0.13857028	-0.15355632	0.19890204	-0.33019849	0.07464121	2.09311396	-0.08759700	3.26309794	0.33492576	-0.08309170	-1.23448852	0.33051058	0.24444629	0.95188632	0.21111155	-0.07158243	0.97537472	-1.36343087	1.19895711	3.41986784	-0.08130324	-0.44181482	0.25396733
4260	42.59000000	-0.08944729	0.20213220	-0.12921439	0.25860299	-0.32945015	0.07431692	0.94084601	0.04553915	2.96163749	0.27354105	-0.36520098	-0.95152074	0.25570997	0.30048025	1.04888343	0.47496592	-0.01983579	0.98374866	-0.65474971	1.22212666	2.97373151	-0.06892176	-0.47398762	0.26243764
4261	42.60000000	-0.03024781	0.25382372	-0.10733634	0.33366013	-0.32693048	0.06529382	-0.05642700	0.24290497	2.60596660	0.19432899	-0.77946724	-0.58923616	0.22403569	0.31493990	1.14067295	0.44314317	0.00241713	0.94862155	0.03886870	1.19432314	2.50094516	-0.12541575	-0.52492623	0.31055655
4262	42.61000000	0.02973649	0.29503961	-0.08516004	0.37124620	-0.31939326	0.03808773	-0.02046000	0.15839086	2.03807758	0.20285208	-0.92714218	-0.32307735	0.22396261	0.33578875	1.22481664	0.53222982	0.01010828	0.86244547	-0.15229525	1.12004499	2.01643739	-0.18962017	-0.60558570	0.37120199
4263	42.62000000	0.07668018	0.34129878	-0.07717495	0.37518449	-0.28773899	0.05090884	0.00260406	-0.36117197	1.20093677	0.06907312	-0.60451034	-0.18542112	0.24145907	0.38075622	1.32867244	0.54618606	0.05259644	0.74122310	1.45827479	0.14113734	0.68737416	-0.23419722	-0.67317360	0.40853524
4264	42.63000000	0.12125132	0.35107199	-0.07645577	0.35483923	-0.25752288	0.06994187	-0.64274106	-0.84409452	0.19933287	-0.26332579	-0.23558133	-0.05363272	0.27249769	0.43430062	1.46954466	0.44215187	0.08652764	0.56016643	1.91301322	-0.93916530	-0.64095544	-0.26743299	-0.77276241	0.43925698
4265	42.64000000	0.15861778	0.36615039	-0.07570092	0.32090066	-0.24185409	0.05004454	-1.34980627	-0.84978300	-0.69779378	-0.61192817	-0.14316583	0.16566564	0.30626662	0.48715356	1.60761159	0.43552506	0.14784868	0.39720099	2.92028020	-1.88244225	-1.78737976	-0.30824015	-0.87451855	0.47381023
4266	42.65000000	0.19943314	0.40900404	-0.06935755	0.29336142	-0.22505245	0.03741725	-1.47465748	-0.48992482	-1.46127104	-0.70569006	-0.25690829	0.35543622	0.30040275	0.52381209	1.72651444	0.38082349	0.24621667	0.25603370	1.37612284	-3.05432372	-1.60508052	-0.37939874	-1.02839283	0.52351177
